HIERARCHY
ROOT Hips
{
  OFFSET 5.80788e-005 67.184 3.4734
  CHANNELS 6 Xposition Yposition Zposition Zrotation Xrotation Yrotation
  JOINT Chest
  {
    OFFSET 0 8.7983 -4.7612
    CHANNELS 6 Xposition Yposition Zposition Zrotation Xrotation Yrotation
    JOINT Chest2
    {
      OFFSET 0 8.0291 0.4195
      CHANNELS 6 Xposition Yposition Zposition Zrotation Xrotation Yrotation
      JOINT Chest3
      {
        OFFSET 0 9.9351 -2.2114
        CHANNELS 6 Xposition Yposition Zposition Zrotation Xrotation Yrotation
        JOINT Neck
        {
          OFFSET 0 22.3885 -0.4656
          CHANNELS 6 Xposition Yposition Zposition Zrotation Xrotation Yrotation
          JOINT Head
          {
            OFFSET -0.0001 12.643 3.4389
            CHANNELS 6 Xposition Yposition Zposition Zrotation Xrotation Yrotation
            End Site
            {
              OFFSET 0.0001 17.6655 0.5274
            }
          }
        }
        JOINT LeftCollar
        {
          OFFSET 2.2603 21.606 7.4023
          CHANNELS 6 Xposition Yposition Zposition Zrotation Xrotation Yrotation
          JOINT LeftShoulder
          {
            OFFSET 13.5163 -1.1332 -5.0146
            CHANNELS 6 Xposition Yposition Zposition Zrotation Xrotation Yrotation
            JOINT LeftElbow
            {
              OFFSET -0.0995 -28.05 -0.2431
              CHANNELS 6 Xposition Yposition Zposition Zrotation Xrotation Yrotation
              JOINT LeftWrist
              {
                OFFSET 0.0679 -23.3996 -0.1402
                CHANNELS 6 Xposition Yposition Zposition Zrotation Xrotation Yrotation
                JOINT LeftFinger1
                {
                  OFFSET 0.7932 -9.069 2.5189
                  CHANNELS 6 Xposition Yposition Zposition Zrotation Xrotation Yrotation
                  JOINT LeftFinger11
                  {
                    OFFSET -0.8272 -3.3923 0.5977
                    CHANNELS 6 Xposition Yposition Zposition Zrotation Xrotation Yrotation
                    JOINT LeftFinger12
                    {
                      OFFSET -0.5649 -2.3158 0.4082
                      CHANNELS 6 Xposition Yposition Zposition Zrotation Xrotation Yrotation
                      End Site
                      {
                        OFFSET -0.4919 -1.6479 0.2673
                      }
                    }
                  }
                }
                JOINT LeftFinger2
                {
                  OFFSET 0.9159 -9.2044 0.2193
                  CHANNELS 6 Xposition Yposition Zposition Zrotation Xrotation Yrotation
                  JOINT LeftFinger21
                  {
                    OFFSET 0.0117 -4.1944 -0.0248
                    CHANNELS 6 Xposition Yposition Zposition Zrotation Xrotation Yrotation
                    JOINT LeftFinger22
                    {
                      OFFSET 0.0071 -2.3249 -0.0142
                      CHANNELS 6 Xposition Yposition Zposition Zrotation Xrotation Yrotation
                      End Site
                      {
                        OFFSET -0.1475 -2.0882 0.0028
                      }
                    }
                  }
                }
                JOINT LeftFinger3
                {
                  OFFSET 0.6113 -8.7231 -2.0637
                  CHANNELS 6 Xposition Yposition Zposition Zrotation Xrotation Yrotation
                  JOINT LeftFinger31
                  {
                    OFFSET -0.1927 -3.8059 -0.2383
                    CHANNELS 6 Xposition Yposition Zposition Zrotation Xrotation Yrotation
                    JOINT LeftFinger32
                    {
                      OFFSET -0.1091 -2.1688 -0.1362
                      CHANNELS 6 Xposition Yposition Zposition Zrotation Xrotation Yrotation
                      End Site
                      {
                        OFFSET -0.2358 -1.9176 -0.0906
                      }
                    }
                  }
                }
                JOINT LeftFinger4
                {
                  OFFSET -0.6151 -8.0947 -3.5641
                  CHANNELS 6 Xposition Yposition Zposition Zrotation Xrotation Yrotation
                  JOINT LeftFinger41
                  {
                    OFFSET -0.4882 -2.341 -0.6462
                    CHANNELS 6 Xposition Yposition Zposition Zrotation Xrotation Yrotation
                    JOINT LeftFinger42
                    {
                      OFFSET -0.3575 -1.7167 -0.4742
                      CHANNELS 6 Xposition Yposition Zposition Zrotation Xrotation Yrotation
                      End Site
                      {
                        OFFSET -0.4187 -1.5237 -0.3496
                      }
                    }
                  }
                }
                JOINT LeftFinger0
                {
                  OFFSET -1.42 -1.8761 1.4223
                  CHANNELS 6 Xposition Yposition Zposition Zrotation Xrotation Yrotation
                  JOINT LeftFinger01
                  {
                    OFFSET -1.1471 -3.4929 2.6334
                    CHANNELS 6 Xposition Yposition Zposition Zrotation Xrotation Yrotation
                    JOINT LeftFinger02
                    {
                      OFFSET -0.823 -2.3 1.6571
                      CHANNELS 6 Xposition Yposition Zposition Zrotation Xrotation Yrotation
                      End Site
                      {
                        OFFSET -0.5822 -1.6914 1.1582
                      }
                    }
                  }
                }
              }
            }
          }
        }
        JOINT RightCollar
        {
          OFFSET -2.2603 21.606 7.4023
          CHANNELS 6 Xposition Yposition Zposition Zrotation Xrotation Yrotation
          JOINT RightShoulder
          {
            OFFSET -13.5187 -1.1334 -5.0155
            CHANNELS 6 Xposition Yposition Zposition Zrotation Xrotation Yrotation
            JOINT RightElbow
            {
              OFFSET 0.0994 -28.0499 -0.2431
              CHANNELS 6 Xposition Yposition Zposition Zrotation Xrotation Yrotation
              JOINT RightWrist
              {
                OFFSET -0.0679 -23.3996 -0.1402
                CHANNELS 6 Xposition Yposition Zposition Zrotation Xrotation Yrotation
                JOINT RightFinger1
                {
                  OFFSET -0.7932 -9.0691 2.5189
                  CHANNELS 6 Xposition Yposition Zposition Zrotation Xrotation Yrotation
                  JOINT RightFinger11
                  {
                    OFFSET 0.8272 -3.3923 0.5977
                    CHANNELS 6 Xposition Yposition Zposition Zrotation Xrotation Yrotation
                    JOINT RightFinger12
                    {
                      OFFSET 0.565 -2.3158 0.4082
                      CHANNELS 6 Xposition Yposition Zposition Zrotation Xrotation Yrotation
                      End Site
                      {
                        OFFSET 0.4919 -1.6479 0.2673
                      }
                    }
                  }
                }
                JOINT RightFinger2
                {
                  OFFSET -0.916 -9.2044 0.2193
                  CHANNELS 6 Xposition Yposition Zposition Zrotation Xrotation Yrotation
                  JOINT RightFinger21
                  {
                    OFFSET -0.0117 -4.1944 -0.0248
                    CHANNELS 6 Xposition Yposition Zposition Zrotation Xrotation Yrotation
                    JOINT RightFinger22
                    {
                      OFFSET -0.0071 -2.3249 -0.0142
                      CHANNELS 6 Xposition Yposition Zposition Zrotation Xrotation Yrotation
                      End Site
                      {
                        OFFSET 0.1475 -2.0882 0.0028
                      }
                    }
                  }
                }
                JOINT RightFinger3
                {
                  OFFSET -0.6113 -8.7231 -2.0637
                  CHANNELS 6 Xposition Yposition Zposition Zrotation Xrotation Yrotation
                  JOINT RightFinger31
                  {
                    OFFSET 0.1927 -3.8059 -0.2383
                    CHANNELS 6 Xposition Yposition Zposition Zrotation Xrotation Yrotation
                    JOINT RightFinger32
                    {
                      OFFSET 0.1091 -2.1688 -0.1362
                      CHANNELS 6 Xposition Yposition Zposition Zrotation Xrotation Yrotation
                      End Site
                      {
                        OFFSET 0.2358 -1.9176 -0.0906
                      }
                    }
                  }
                }
                JOINT RightFinger4
                {
                  OFFSET 0.6151 -8.0947 -3.564
                  CHANNELS 6 Xposition Yposition Zposition Zrotation Xrotation Yrotation
                  JOINT RightFinger41
                  {
                    OFFSET 0.4882 -2.341 -0.6462
                    CHANNELS 6 Xposition Yposition Zposition Zrotation Xrotation Yrotation
                    JOINT RightFinger42
                    {
                      OFFSET 0.3574 -1.7166 -0.4742
                      CHANNELS 6 Xposition Yposition Zposition Zrotation Xrotation Yrotation
                      End Site
                      {
                        OFFSET 0.4187 -1.5237 -0.3496
                      }
                    }
                  }
                }
                JOINT RightFinger0
                {
                  OFFSET 1.4199 -1.8761 1.4221
                  CHANNELS 6 Xposition Yposition Zposition Zrotation Xrotation Yrotation
                  JOINT RightFinger01
                  {
                    OFFSET 1.1472 -3.4929 2.6336
                    CHANNELS 6 Xposition Yposition Zposition Zrotation Xrotation Yrotation
                    JOINT RightFinger02
                    {
                      OFFSET 0.8229 -2.3 1.6571
                      CHANNELS 6 Xposition Yposition Zposition Zrotation Xrotation Yrotation
                      End Site
                      {
                        OFFSET 0.5822 -1.6914 1.1582
                      }
                    }
                  }
                }
              }
            }
          }
        }
      }
    }
  }
  JOINT RightHip
  {
    OFFSET -9.412 3.9771 -0.7758
    CHANNELS 6 Xposition Yposition Zposition Zrotation Xrotation Yrotation
    JOINT RightKnee
    {
      OFFSET -0.7531 -40.938 0
      CHANNELS 6 Xposition Yposition Zposition Zrotation Xrotation Yrotation
      JOINT RightAnkle
      {
        OFFSET 0 -40.1986 0
        CHANNELS 6 Xposition Yposition Zposition Zrotation Xrotation Yrotation
        JOINT RightToe
        {
          OFFSET 0 -4.4182 9.239
          CHANNELS 6 Xposition Yposition Zposition Zrotation Xrotation Yrotation
          End Site
          {
            OFFSET 0 0 6.1981
          }
        }
      }
    }
  }
  JOINT LeftHip
  {
    OFFSET 9.4119 3.9773 -0.7758
    CHANNELS 6 Xposition Yposition Zposition Zrotation Xrotation Yrotation
    JOINT LeftKnee
    {
      OFFSET 0.7532 -40.9383 0
      CHANNELS 6 Xposition Yposition Zposition Zrotation Xrotation Yrotation
      JOINT LeftAnkle
      {
        OFFSET 0 -40.1986 0
        CHANNELS 6 Xposition Yposition Zposition Zrotation Xrotation Yrotation
        JOINT LeftToe
        {
          OFFSET 0 -4.4182 9.239
          CHANNELS 6 Xposition Yposition Zposition Zrotation Xrotation Yrotation
          End Site
          {
            OFFSET 0 0 6.1981
          }
        }
      }
    }
  }
}
MOTION
Frames:	4
Frame Time:	0.0333333
5.80788e-005 67.184 3.4734 0 0 -0 0 8.7983 -4.7612 0 0 -0 0 8.0291 0.4195 0 0 -0 0 9.9351 -2.2114 0 0 -0 0 22.3885 -0.4656 0 0 -0 -0.0001 12.643 3.4389 0 0 -0 2.2603 21.606 7.4023 0 0 -12.5014 13.5163 -1.1332 -5.0146 88.1196 14.2451 10.6914 -0.0995 -28.05 -0.2431 -0.00160068 -0.00239207 0.000740045 0.0679 -23.3996 -0.1402 -8.4365e-005 7.00714e-005 -9.52055e-007 0.7932 -9.069 2.5189 9.93923e-017 -1.98785e-016 -1.59028e-015 -0.8272 -3.3923 0.5977 9.93923e-017 -5.96354e-016 -1.59028e-015 -0.5649 -2.3158 0.4082 -9.93923e-017 -5.96354e-016 -1.59028e-015 0.9159 -9.2044 0.2193 9.93923e-017 -1.98785e-016 -1.59028e-015 0.0117 -4.1944 -0.0248 -0.0128176 0.00232552 8.52707e-005 0.0071 -2.3249 -0.0142 9.93923e-017 5.96354e-016 -0 0.6113 -8.7231 -2.0637 9.93923e-017 -1.98785e-016 -1.59028e-015 -0.1927 -3.8059 -0.2383 -0.0160551 0.00299681 0.000857156 -0.1091 -2.1688 -0.1362 -2.48481e-016 0 3.18055e-015 -0.6151 -8.0947 -3.5641 9.93923e-017 -1.98785e-016 -1.59028e-015 -0.4882 -2.341 -0.6462 -0.0125865 0.0031206 0.00282719 -0.3575 -1.7167 -0.4742 0 1.98785e-016 -0 -1.42 -1.8761 1.4223 9.93923e-017 -1.98785e-016 -1.59028e-015 -1.1471 -3.4929 2.6334 9.93923e-017 -5.96354e-016 -1.59028e-015 -0.823 -2.3 1.6571 -9.93923e-017 -5.96354e-016 -1.59028e-015 -2.2603 21.606 7.4023 -0.865644 0.16582 7.03859 -13.5187 -1.1334 -5.0155 -88.0329 10.2057 -10.5567 0.0994 -28.0499 -0.2431 0.0015593 -0.00248883 -0.000788628 -0.0679 -23.3996 -0.1402 7.87605e-005 4.10553e-005 1.24965e-005 -0.7932 -9.0691 2.5189 -3.97569e-016 -7.95139e-016 3.18055e-015 0.8272 -3.3923 0.5977 -1.98785e-016 -3.97569e-016 3.18055e-015 0.565 -2.3158 0.4082 -1.98785e-016 0 3.18055e-015 -0.916 -9.2044 0.2193 -3.97569e-016 -7.95139e-016 3.18055e-015 -0.0117 -4.1944 -0.0248 0.0129473 0.00231697 -8.70038e-005 -0.0071 -2.3249 -0.0142 9.93923e-017 -7.95139e-016 1.59028e-015 -0.6113 -8.7231 -2.0637 -3.97569e-016 -7.95139e-016 3.18055e-015 0.1927 -3.8059 -0.2383 0.0163314 0.00303369 -0.000872333 0.1091 -2.1688 -0.1362 3.97569e-016 7.95139e-016 -3.18055e-015 0.6151 -8.0947 -3.564 -3.97569e-016 -7.95139e-016 3.18055e-015 0.4882 -2.341 -0.6462 0.0145763 0.00367772 -0.00326275 0.3574 -1.7166 -0.4742 9.93923e-017 -3.97569e-016 -0 1.4199 -1.8761 1.4221 -3.97569e-016 -7.95139e-016 3.18055e-015 1.1472 -3.4929 2.6336 -1.98785e-016 -3.97569e-016 3.18055e-015 0.8229 -2.3 1.6571 -1.98785e-016 0 3.18055e-015 -9.412 3.9771 -0.7758 3.42485 1.36937 -0.0640303 -0.7531 -40.938 0 0.000136572 0.69354 0.00145564 1.77636e-015 -40.1986 -1.11022e-016 -3.42573 -2.06297 -0.0607933 8.88178e-016 -4.4182 9.239 -3.19502e-024 0 -1.48106e-024 9.4119 3.9773 -0.7758 -3.42498 1.36123 0.0639712 0.7532 -40.9383 2.22045e-016 -6.769e-005 0.712612 -0.0012277 8.88179e-016 -40.1986 0 3.42582 -2.07388 0.0612819 -8.88178e-016 -4.4182 9.239 2.55305e-023 0 -2.31416e-026 
3.54025 68.7727 13.9317 -1.68793 -1.59183 133.31 -1.77636e-015 8.7983 -4.7612 -0.368724 1.37738 -0.187457 1.77636e-015 8.0291 0.4195 -0.733262 2.75593 -0.36605 -1.77636e-015 9.9351 -2.2114 -0.733263 2.75593 -0.366044 0 22.3885 -0.4656 0.122201 0.192218 -0.00964095 -0.0001 12.643 3.4389 0.0512803 0.0620275 0.0135704 2.2603 21.606 7.4023 -11.1 -13.789 -28.1665 13.5163 -1.1332 -5.0146 90.7635 -23.7398 29.2332 -0.0995 -28.05 -0.2431 -53.113 -34.1184 -28.7006 0.0679 -23.3996 -0.1402 -17.691 13.7148 14.2427 0.7932 -9.069 2.5189 -3.59502e-006 1.96001e-006 -1.11962e-005 -0.8272 -3.3923 0.5977 3.47693e-006 2.17799e-006 -3.2943e-006 -0.5649 -2.3158 0.4082 -6.36111e-015 4.77083e-015 -3.18055e-015 0.915899 -9.2044 0.2193 -3.59502e-006 1.96001e-006 -1.11962e-005 0.0117 -4.1944 -0.0248 -0.012869 0.00232152 9.04628e-005 0.0071 -2.3249 -0.0142 -8.63215e-006 6.15919e-006 -4.29651e-006 0.6113 -8.7231 -2.0637 -3.59502e-006 1.96001e-006 -1.11962e-005 -0.1927 -3.8059 -0.2383 -0.0160602 0.00299162 0.000853318 -0.1091 -2.1688 -0.1362 -8.82781e-032 1.59028e-015 3.18055e-015 -0.6151 -8.0947 -3.5641 -3.59502e-006 1.96001e-006 -1.11962e-005 -0.4882 -2.341 -0.6462 -0.0126255 0.00312175 0.0028325 -0.3575 -1.7167 -0.4742 2.58146e-006 -4.459e-006 -2.77193e-006 -1.42 -1.8761 1.4223 -3.59502e-006 1.96001e-006 -1.11962e-005 -1.1471 -3.4929 2.6334 3.47693e-006 2.17799e-006 -3.2943e-006 -0.823 -2.3 1.6571 -6.36111e-015 4.77083e-015 -3.18055e-015 -2.2603 21.606 7.4023 0.411694 0.295442 6.54281 -13.5187 -1.1334 -5.0155 -36.9088 -13.9585 -9.86196 0.0994 -28.0499 -0.2431 20.4307 -13.8018 5.72436 -0.0679 -23.3996 -0.1402 -0.751864 -3.27108 1.59826 -0.7932 -9.0691 2.5189 7.95139e-016 6.36111e-015 3.18055e-015 0.8272 -3.3923 0.5977 0 1.59028e-015 -0 0.565 -2.3158 0.4082 -1.48914e-006 7.85459e-007 6.25369e-007 -0.916 -9.2044 0.2193 7.95139e-016 6.36111e-015 3.18055e-015 -0.0117 -4.1944 -0.0248 0.0128756 0.00230307 -8.78573e-005 -0.0071 -2.3249 -0.0142 3.97569e-015 2.18921e-006 1.27222e-014 -0.6113 -8.7231 -2.0637 7.95139e-016 6.36111e-015 3.18055e-015 0.1927 -3.8059 -0.2383 0.0163223 0.00303357 -0.000866839 0.1091 -2.1688 -0.1362 0 2.18922e-006 -0 0.6151 -8.0947 -3.564 7.95139e-016 6.36111e-015 3.18055e-015 0.4882 -2.341 -0.6462 0.0146156 0.00369117 -0.00326452 0.3574 -1.7166 -0.4742 -3.18055e-015 0 -3.18055e-015 1.4199 -1.8761 1.4221 7.95139e-016 6.36111e-015 3.18055e-015 1.1472 -3.4929 2.6336 0 1.59028e-015 -0 0.8229 -2.3 1.6571 -1.48914e-006 7.85459e-007 6.25369e-007 -9.412 3.9771 -0.7758 175.136 -61.1911 174.252 -0.7531 -40.938 1.42109e-014 1.79089 5.39075 -0.344135 0 -40.1986 0 -7.41616 3.96677 0.0367832 -7.10543e-015 -4.4182 9.239 1.27222e-014 1.59028e-015 -4.77083e-015 9.4119 3.9773 -0.7758 -2.9707 0.0645533 0.484963 0.7532 -40.9383 -1.77636e-015 -1.61797 5.5931 0.272817 0 -40.1986 0 8.4552 0.605026 0.485228 1.77636e-015 -4.4182 9.239 1.61206e-006 -1.2565e-006 -1.19034e-005 
0.07443 69.797 20.2259 0.664238 -2.80035 -166.65 0 8.7983 -4.7612 -0.526501 2.11057 -0.279781 4.44089e-016 8.0291 0.4195 -1.04375 4.22363 -0.540617 -4.44089e-016 9.9351 -2.2114 -1.04375 4.22363 -0.540624 0 22.3885 -0.4656 0.232851 0.320594 -0.02545 -0.0001 12.643 3.4389 0.0962569 0.109903 -0.0477364 2.2603 21.606 7.4023 -18.6116 -19.2621 -36.1115 13.5163 -1.1332 -5.0146 91.0406 -40.859 36.8749 -0.0995 -28.05 -0.2431 -74.7334 -50.9726 -39.5716 0.0679 -23.3996 -0.1402 -25.7965 19.6789 20.8857 0.7932 -9.06901 2.5189 6.36111e-015 -1.27222e-014 3.18055e-015 -0.8272 -3.3923 0.5977 -4.41391e-031 -7.95139e-015 -3.18055e-015 -0.5649 -2.3158 0.4082 -3.18055e-015 -9.54166e-015 -1.59028e-015 0.9159 -9.20441 0.2193 6.36111e-015 -1.27222e-014 3.18055e-015 0.0117 -4.1944 -0.0248 -0.0128593 0.00233334 8.49036e-005 0.0071 -2.3249 -0.0142 3.18055e-015 -3.18055e-015 -3.18055e-015 0.6113 -8.72311 -2.0637 6.36111e-015 -1.27222e-014 3.18055e-015 -0.1927 -3.8059 -0.2383 -0.0160795 0.00299708 0.000852614 -0.1091 -2.1688 -0.1362 1.32417e-031 -4.77083e-015 1.59028e-015 -0.6151 -8.09471 -3.5641 6.36111e-015 -1.27222e-014 3.18055e-015 -0.4882 -2.341 -0.6462 -0.0126002 0.00312155 0.00282756 -0.3575 -1.7167 -0.4742 6.36111e-015 4.77083e-015 4.77083e-015 -1.42 -1.8761 1.4223 6.36111e-015 -1.27222e-014 3.18055e-015 -1.1471 -3.4929 2.6334 -4.41391e-031 -7.95139e-015 -3.18055e-015 -0.823 -2.3 1.6571 -3.18055e-015 -9.54166e-015 -1.59028e-015 -2.2603 21.606 7.4023 0.987684 0.167201 6.36962 -13.5187 -1.1334 -5.0155 -14.9447 -26.0551 -8.79717 0.0994 -28.0499 -0.2431 29.5931 -19.9429 8.11061 -0.0679 -23.3996 -0.1402 -1.03708 -4.67573 2.2685 -0.7932 -9.0691 2.5189 4.77083e-015 -6.36111e-015 -0 0.8272 -3.3923 0.5977 -0 -3.18055e-015 -0 0.565 -2.3158 0.4082 -1.59028e-015 0 -9.54166e-015 -0.916 -9.2044 0.2193 4.77083e-015 -6.36111e-015 -0 -0.0117 -4.1944 -0.0248 0.012956 0.00232199 -8.2582e-005 -0.0071 -2.3249 -0.0142 6.36111e-015 -9.54166e-015 6.36111e-015 -0.6113 -8.7231 -2.0637 4.77083e-015 -6.36111e-015 -0 0.1927 -3.8059 -0.2383 0.0163501 0.003045 -0.000879648 0.1091 -2.1688 -0.1362 1.59028e-015 3.18055e-015 3.18055e-015 0.6151 -8.0947 -3.564 4.77083e-015 -6.36111e-015 -0 0.4882 -2.341 -0.6462 0.014606 0.0036772 -0.00325894 0.3574 -1.7166 -0.4742 -4.77083e-015 -3.18055e-015 -0 1.4199 -1.8761 1.4221 4.77083e-015 -6.36111e-015 -0 1.1472 -3.4929 2.6336 -0 -3.18055e-015 -0 0.8229 -2.3 1.6571 -1.59028e-015 0 -9.54166e-015 -9.412 3.9771 -0.7758 179.048 -7.6988 179.642 -0.7531 -40.938 0 2.50009 7.58834 -0.425555 -1.77636e-015 -40.1986 7.10543e-015 -9.26569 6.72356 0.109476 -1.77636e-015 -4.4182 9.239 -1.1717e-006 5.61769e-006 -1.46933e-006 9.4119 3.9773 -0.7758 -2.59749 0.173186 0.638464 0.7532 -40.9383 0 -2.40233 6.90078 0.304991 0 -40.1986 -7.10543e-015 10.5869 2.59831 0.56855 0 -4.4182 9.239 3.97569e-016 3.48754e-006 -0 
0.843709 69.6059 18.1899 -7.22175e-015 -1.67381 180 0 8.7983 -4.7612 -0.491912 2.20038 -0.255689 0 8.0291 0.4195 -0.975064 4.40285 -0.492993 4.44089e-016 9.9351 -2.2114 -0.975065 4.40286 -0.492994 -8.88179e-016 22.3885 -0.4656 0.33192 0.385221 -0.0474583 -0.0001 12.643 3.4389 0.135062 0.143597 -0.18397 2.2603 21.606 7.4023 -16.7265 -18.365 -34.727 13.5163 -1.1332 -5.0146 91.0618 -37.0399 35.2518 -0.0995 -28.05 -0.2431 -69.2631 -46.9448 -36.6298 0.0679 -23.3996 -0.1402 -24.1847 18.0342 19.3237 0.7932 -9.069 2.5189 -3.18055e-015 4.77083e-015 -4.77083e-015 -0.8272 -3.3923 0.5977 9.54166e-015 1.59028e-015 3.18055e-015 -0.5649 -2.3158 0.4082 2.64834e-031 3.18055e-015 -4.77083e-015 0.9159 -9.2044 0.2193 -3.18055e-015 4.77083e-015 -4.77083e-015 0.0117 -4.1944 -0.0248 -0.0129289 0.00234558 8.86577e-005 0.0071 -2.3249 -0.0142 6.62086e-031 -7.95139e-015 4.77083e-015 0.6113 -8.7231 -2.0637 -3.18055e-015 4.77083e-015 -4.77083e-015 -0.1927 -3.8059 -0.2383 -0.0159771 0.0029863 0.000857936 -0.1091 -2.1688 -0.1362 -3.18055e-015 -9.54166e-015 -1.59028e-015 -0.6151 -8.0947 -3.5641 -3.18055e-015 4.77083e-015 -4.77083e-015 -0.4882 -2.341 -0.6462 -0.0125703 0.00311712 0.00281854 -0.3575 -1.7167 -0.4742 -3.18055e-015 -1.11319e-014 -6.36111e-015 -1.42 -1.8761 1.4223 -3.18055e-015 4.77083e-015 -4.77083e-015 -1.1471 -3.4929 2.6334 9.54166e-015 1.59028e-015 3.18055e-015 -0.823 -2.3 1.6571 2.64834e-031 3.18055e-015 -4.77083e-015 -2.2603 21.606 7.4023 0.86207 -0.218822 6.51896 -13.5187 -1.1334 -5.0155 -19.8025 -23.3325 -9.08327 0.0994 -28.0499 -0.2431 27.343 -18.4525 7.502 -0.0679 -23.3996 -0.1402 -0.856198 -4.21327 1.9975 -0.7932 -9.0691 2.5189 1.59028e-015 9.54166e-015 1.59028e-015 0.8272 -3.3923 0.5977 -1.59028e-015 1.27222e-014 -0 0.565 -2.3158 0.4082 -3.18055e-015 1.90833e-014 3.18055e-015 -0.916 -9.2044 0.2193 1.59028e-015 9.54166e-015 1.59028e-015 -0.0117 -4.1944 -0.0248 0.0129519 0.00231685 -9.12112e-005 -0.0071 -2.3249 -0.0142 -1.59028e-015 3.18055e-015 -1.59028e-015 -0.6113 -8.7231 -2.0637 1.59028e-015 9.54166e-015 1.59028e-015 0.1927 -3.8059 -0.2383 0.0163054 0.00302597 -0.000869718 0.1091 -2.1688 -0.1362 -4.77083e-015 3.18055e-015 1.59028e-015 0.6151 -8.0947 -3.564 1.59028e-015 9.54166e-015 1.59028e-015 0.4882 -2.341 -0.6462 0.0145687 0.00367495 -0.00325357 0.3574 -1.7166 -0.4742 -1.59028e-015 -1.27222e-014 -3.18055e-015 1.4199 -1.8761 1.4221 1.59028e-015 9.54166e-015 1.59028e-015 1.1472 -3.4929 2.6336 -1.59028e-015 1.27222e-014 -0 0.8229 -2.3 1.6571 -3.18055e-015 1.90833e-014 3.18055e-015 -9.412 3.9771 -0.7758 178.707 -20.8114 178.803 -0.7531 -40.938 -7.10543e-015 2.12061 7.07157 -0.311913 0 -40.1986 0 -8.68858 6.01331 0.0527148 1.77636e-015 -4.4182 9.239 4.69309e-007 2.66136e-009 7.47493e-008 9.4119 3.9773 -0.7758 -2.66857 1.43218 0.608772 0.7532 -40.9383 3.55271e-015 -2.3611 6.48581 0.351014 0 -40.1986 -3.55271e-015 10.1993 2.28958 0.526438 4.44089e-016 -4.4182 9.239 -4.2697e-007 7.08725e-009 -3.54908e-008 
